# xmcd
#
# Track frame offsets:
#	150
#	6565
#	13920
#	27850
#	32270
#	37065
#	41380
#	46382
#	51200
#	55365
#	60687
#	66097
#	73722
#	78605
#	84930
#	88542
#	91777
#	96202
#	99650
#	102240
#	104672
#	108712
#	111987
#	115797
#	119877
#	122812
#	126530
#	131380
#	134547
#	137532
#	141342
#	144735
#	148017
#	151817
#	155920
#	159130
#	163947
#	167420
#	170710
#	174295
#	178507
#	182497
#	185820
#	189507
#	193670
#	196352
#	199440
#	202512
#	207352
#	210410
#	213440
#	217345
#	220795
#	223847
#	227090
#	230090
#	233642
#	237985
#	241485
#	244525
#	247805
#	251010
#	254132
#	257462
#	261912
#	264580
#	268535
#	272902
#	276612
#	280257
#	284535
#	288167
#	291930
#	295180
#	298975
#	302320
#	305675
#	310167
#	315295
#	318475
#	322305
#	326347
#	330897
#
# Disc length: 4439 seconds
#
# Revision: 1
# Processed by: cddbd v1.5.1PL0 Copyright (c) Steve Scherf et al.
# Submitted via: CDex 1.50Beta5
#
DISCID=0f115553
DTITLE=ハイディ矢野 - Disc1 ネイティブの発音・リスニングが絶対身に付く本
DYEAR=2002
DGENRE=Books
TTITLE0=オープニング
TTITLE1=はじめに 1
TTITLE2=はじめに 2
TTITLE3=法則001 チュッチュッ
TTITLE4=法則002 ケナイケナイ
TTITLE5=法則003 クライクライ
TTITLE6=法則004 カパラカパラ
TTITLE7=法則005 グラグラ
TTITLE8=法則006 フルフル
TTITLE9=法則007 ワッケナイワッケナイ
TTITLE10=法則008 イズィイズィ
TTITLE11=法則009 ンダンダ
TTITLE12=法則010 チョンチョンはタブー
TTITLE13=法則011 「T」が消え失せる
TTITLE14=法則012 ホーホーフクロウさん
TTITLE15=法則013 チュオチュオ
TTITLE16=法則014 ニーラニーラ
TTITLE17=法則015 アラロアラロ
TTITLE18=法則016 タヤタヤ
TTITLE19=法則017 ガッチャガッチャ
TTITLE20=法則018 ケリケリ
TTITLE21=法則019 ンバンバ
TTITLE22=法則020 ユーザユーザ
TTITLE23=法則021 ギミギミ
TTITLE24=法則022 レミレミ
TTITLE25=法則023 エゼエゼ
TTITLE26=法則024 「An」が出てきたら、次に出てくる単語と一緒に発音する
TTITLE27=法則025 イレーズイレーズ
TTITLE28=法則026 ベラベラ
TTITLE29=法則027 イライラ
TTITLE30=法則028 ナラナラ
TTITLE31=法則029 フォーフォー
TTITLE32=法則030 アバラアバラ
TTITLE33=法則031 フォーニャフォーニャ
TTITLE34=法則032 ベッチャベッチャ
TTITLE35=法則033 アバラカパラ
TTITLE36=法則034 ガラガラ
TTITLE37=法則035 ワラワラ
TTITLE38=法則036 ワナワナ
TTITLE39=法則037 アラ、エッサッサー
TTITLE40=法則038 ケラケラ
TTITLE41=法則039 ベンベン
TTITLE42=法則040 センジャセンジャ
TTITLE43=法則041 ザルザル（舌を少しかみながら）
TTITLE44=法則042 ガラガラ
TTITLE45=法則043 ガレガレ
TTITLE46=法則044 プッチュプッチュ
TTITLE47=法則045 メラメラ（ラ＝Raで発音する）
TTITLE48=法則046 タパダタパダ
TTITLE49=法則047 イザイザ
TTITLE50=法則048 「トーリトーリ」にならないように
TTITLE51=法則049 ゲリゲリ
TTITLE52=法則050 マンスズにならないように
TTITLE53=法則051 ワラハワラハ
TTITLE54=法則052 ゲッツェゲッツェ
TTITLE55=法則053 リィリィ
TTITLE56=法則054 パッパッ
TTITLE57=法則055 ペケラペケラ
TTITLE58=法則056 バンチャバンチャ
TTITLE59=法則057 スィーヤスィーヤ
TTITLE60=法則058 ゲラーラゲラーラ
TTITLE61=法則059 ゼデンゼデン
TTITLE62=法則060 ブッカブッカ
TTITLE63=法則061 ガララガララ
TTITLE64=法則062 ウェイラウェイラ
TTITLE65=法則063 バカダバカダ
TTITLE66=法則064 バーラバーラ
TTITLE67=法則065 20・30・40・50・60・70・80・90
TTITLE68=法則066 クダクダ
TTITLE69=法則067 サンマだ、ブリだ、カツオだ
TTITLE70=法則068 罠だ、罠だ
TTITLE71=法則069 フラナダフラナダ
TTITLE72=法則070 バラマダバラマダ
TTITLE73=法則071 サイラダサイラダ
TTITLE74=法則072 ベラレベラレ
TTITLE75=法則073 イレイレ
TTITLE76=法則074 おー兄ちゃん
TTITLE77=法則075 「T」は空気を切る感じ
TTITLE78=法則076 カラカラ
TTITLE79=法則077 カイナカイナ
TTITLE80=法則078 バックとマック
TTITLE81=法則079 春のウラァラァの
TTITLE82=法則080 エッサ・コラサ・ピーサ
EXTD=
EXTT0=
EXTT1=
EXTT2=
EXTT3=
EXTT4=
EXTT5=
EXTT6=
EXTT7=
EXTT8=
EXTT9=
EXTT10=
EXTT11=
EXTT12=
EXTT13=
EXTT14=
EXTT15=
EXTT16=
EXTT17=
EXTT18=
EXTT19=
EXTT20=
EXTT21=
EXTT22=
EXTT23=
EXTT24=
EXTT25=
EXTT26=
EXTT27=
EXTT28=
EXTT29=
EXTT30=
EXTT31=
EXTT32=
EXTT33=
EXTT34=
EXTT35=
EXTT36=
EXTT37=
EXTT38=
EXTT39=
EXTT40=
EXTT41=
EXTT42=
EXTT43=
EXTT44=
EXTT45=
EXTT46=
EXTT47=
EXTT48=
EXTT49=
EXTT50=
EXTT51=
EXTT52=
EXTT53=
EXTT54=
EXTT55=
EXTT56=
EXTT57=
EXTT58=
EXTT59=
EXTT60=
EXTT61=
EXTT62=
EXTT63=
EXTT64=
EXTT65=
EXTT66=
EXTT67=
EXTT68=
EXTT69=
EXTT70=
EXTT71=
EXTT72=
EXTT73=
EXTT74=
EXTT75=
EXTT76=
EXTT77=
EXTT78=
EXTT79=
EXTT80=
EXTT81=
EXTT82=
PLAYORDER=
